<?xml version="1.0" standalone="no"?>
<!DOCTYPE svg PUBLIC "-//W3C//DTD SVG 20010904//EN"
 "http://www.w3.org/TR/2001/REC-SVG-20010904/DTD/svg10.dtd">
<svg version="1.0" xmlns="http://www.w3.org/2000/svg"
 width="93.000000pt" height="93.000000pt" viewBox="0 0 93.000000 93.000000"
 preserveAspectRatio="xMidYMid meet">
<metadata>
Created by potrace 1.11, written by Peter Selinger 2001-2013
</metadata>
<g transform="translate(0.000000,93.000000) scale(0.100000,-0.100000)"
fill="#000000" stroke="none">
<path d="M26 840 c-1 -3 -2 -169 -1 -370 l1 -365 124 -3 125 -3 2 257 c1 148
6 260 12 263 5 3 38 6 73 6 l63 -1 -2 -74 c-1 -41 -4 -109 -7 -150 -3 -41 -8
-126 -11 -188 l-6 -113 88 3 88 3 -3 135 c-4 218 -3 372 2 377 3 3 28 6 55 7
40 2 51 -1 52 -13 3 -41 -2 -383 -7 -437 -3 -44 -1 -63 8 -66 19 -6 206 -3
213 3 3 4 8 170 10 370 l5 364 -441 0 c-242 0 -442 -2 -443 -5z"/>
</g>
</svg>
